<?xml version="1.0"?>
<svg xmlns="http://www.w3.org/2000/svg" viewBox="0 0 64 64" width="512" height="512"><g id="Sick-Fever-Thermometure-Temperature-Avatar"><path d="M46,50H44V60H20V50H18V60H13V49.352a8.961,8.961,0,0,1,6.315-8.59L27.193,38.3a4.973,4.973,0,0,0,9.614,0l7.878,2.462A8.946,8.946,0,0,1,47.4,42.151l1.2-1.6a10.959,10.959,0,0,0-3.321-1.7L37,36.265V32.786A11.008,11.008,0,0,0,42.949,24H43a4,4,0,0,0,0-8V13a11,11,0,0,0-22,0v3a4,4,0,0,0,0,8h.051A11.008,11.008,0,0,0,27,32.786v3.479l-8.28,2.588A10.952,10.952,0,0,0,11,49.352V61a1,1,0,0,0,1,1H49V60H46ZM45,20a2,2,0,0,1-2,2V18A2,2,0,0,1,45,20ZM32,4a9.01,9.01,0,0,1,9,9v1H39.414l-2.707-2.707A1,1,0,0,0,35.4,11.2L31.667,14H23V13A9.01,9.01,0,0,1,32,4ZM19,20a2,2,0,0,1,2-2v4A2,2,0,0,1,19,20Zm4,3V16h9a1,1,0,0,0,.6-.2l3.306-2.48,2.387,2.387A1,1,0,0,0,39,16h2v7a9,9,0,0,1-18,0Zm9,11a10.966,10.966,0,0,0,3-.426V37a3,3,0,0,1-6,0V33.574A10.966,10.966,0,0,0,32,34Z"/><path d="M29.882,21.472a1,1,0,0,0-.05-1.027l-2-3-1.664,1.11L27.132,20H25v2h4A1,1,0,0,0,29.882,21.472Z"/><path d="M35,22h4V20H36.868l.964-1.445-1.664-1.11-2,3A1,1,0,0,0,35,22Z"/><path d="M34,28h2a4,4,0,0,0-8,0h2a2,2,0,0,1,4,0Z"/><path d="M49,13c.031,0,.062,0,.094,0,1.146-.108,3.92-.447,4.9-1.269a3,3,0,1,0-3.856-4.6c-.98.822-1.8,3.494-2.1,4.6A1,1,0,0,0,49,13Zm2.422-4.337a1,1,0,1,1,1.286,1.531,7.5,7.5,0,0,1-2.288.615A7.44,7.44,0,0,1,51.422,8.663Z"/><path d="M53.46,15.74c-1.258-.22-3.83.871-4.877,1.351a1,1,0,0,0-.285,1.62c.819.81,2.861,2.716,4.12,2.938A3,3,0,1,0,53.46,15.74Zm-.693,3.939a7.478,7.478,0,0,1-1.942-1.357,7.591,7.591,0,0,1,2.287-.612,1,1,0,1,1-.345,1.969Z"/><path d="M13,8.163h0c1.048.732,3.839.829,4.99.836H18a1,1,0,0,0,.937-1.348c-.4-1.08-1.446-3.671-2.493-4.4A3,3,0,0,0,13,8.163Zm.9-3.031a1,1,0,0,1,.646-.411.985.985,0,0,1,.746.165,7.461,7.461,0,0,1,1.185,2.051,7.457,7.457,0,0,1-2.333-.413A1,1,0,0,1,13.9,5.132Z"/><path d="M13.2,18.249a3.052,3.052,0,0,0,.527.046,2.971,2.971,0,0,0,1.714-.543c1.048-.733,2.094-3.324,2.494-4.4A1,1,0,0,0,17,12h-.007c-1.151.007-3.942.1-4.99.836h0a3,3,0,0,0,1.2,5.412Zm-.054-3.773a7.474,7.474,0,0,1,2.333-.413A7.434,7.434,0,0,1,14.3,16.114a1,1,0,0,1-1.148-1.638Z"/><path d="M56,51.184V35H54V51.184a3,3,0,1,0,2,0ZM55,55a1,1,0,1,1,1-1A1,1,0,0,1,55,55Z"/><path d="M60,49.11V34a5,5,0,0,0-10,0V49.11a7,7,0,1,0,10,0ZM55,59a4.994,4.994,0,0,1-3.332-8.719A1,1,0,0,0,52,49.537V34a3,3,0,0,1,6,0V49.537a1,1,0,0,0,.332.744A4.994,4.994,0,0,1,55,59Z"/><path d="M6,38H4a2.259,2.259,0,0,1-.76,1.683,4.212,4.212,0,0,0,0,5.969,2.243,2.243,0,0,1,0,3.365A4.164,4.164,0,0,0,2,52H4a2.258,2.258,0,0,1,.759-1.681,4.208,4.208,0,0,0,0-5.968,2.244,2.244,0,0,1,0-3.366A4.171,4.171,0,0,0,6,38Z"/><path d="M9.759,35.351a2.244,2.244,0,0,1,0-3.366A4.171,4.171,0,0,0,11,29H9a2.259,2.259,0,0,1-.76,1.683,4.212,4.212,0,0,0,0,5.969,2.243,2.243,0,0,1,0,3.365A4.164,4.164,0,0,0,7,43H9a2.258,2.258,0,0,1,.759-1.681,4.208,4.208,0,0,0,0-5.968Z"/></g></svg>
