<svg height="512pt" viewBox="0 -76 512.0005 512" width="512pt" xmlns="http://www.w3.org/2000/svg"><path d="m507.605469 214.394531-30-30c-4.566407-4.566406-11.539063-5.699219-17.3125-2.808593l-60 30c-5.082031 2.539062-8.292969 7.730468-8.292969 13.414062v15h-39.785156l-21.214844-21.210938v-47.574218l25.605469-25.609375c3.410156-3.40625 4.972656-8.25 4.199219-13.007813-.769532-4.757812-3.78125-8.855468-8.097657-11.011718l-55.527343-27.765626-27.761719-55.527343c-2.15625-4.3125-6.253907-7.328125-11.015625-8.097657-4.757813-.773437-9.601563.789063-13.007813 4.199219l-19.394531 19.394531-15-15v-23.789062c0-8.285156-6.714844-15-15-15h-30c-3.976562 0-7.792969 1.582031-10.605469 4.394531l-25.605469 25.605469h-21.246093l-56.835938-28.417969c-2.082031-1.039062-4.378906-1.582031-6.707031-1.582031h-30c-8.285156 0-15 6.714844-15 15v30c0 2.328125.542969 4.625 1.582031 6.707031l11.019531 22.039063c8.460938 16.921875 5.167969 37.269531-8.207031 50.648437-5.859375 5.855469-5.859375 15.355469 0 21.210938l25.605469 25.609375v23.785156c0 3.976562 1.582031 7.792969 4.394531 10.605469l60 60c4.289063 4.289062 10.742188 5.574219 16.347657 3.253906 5.605468-2.324219 9.257812-7.792969 9.257812-13.859375v-60c0-2.328125-.539062-4.625-1.582031-6.707031l-24.621094-49.238281c-2.484375-4.96875-3.796875-10.53125-3.796875-16.085938v-17.015625l46 36.316406v22.730469c0 5.015625 2.507812 9.699219 6.679688 12.480469l38.320312 25.546875v51.972656c0 5.683594 3.210938 10.875 8.292969 13.417969l57.824219 28.910156 28.277343 28.277344c2.8125 2.8125 6.628907 4.394531 10.605469 4.394531h56.511719l57.867187 28.460938c4.648438 2.285156 10.148438 2.011718 14.546875-.726563 4.402344-2.738281 7.074219-7.554687 7.074219-12.734375v-15h15c3.976562 0 7.792969-1.582031 10.605469-4.394531l25.609375-25.605469h23.785156c8.285156 0 15-6.714844 15-15v-60c0-3.976562-1.582031-7.792969-4.394531-10.605469zm-25.605469 55.605469h-15c-3.976562 0-7.792969 1.582031-10.605469 4.394531l-25.605469 25.605469h-23.789062c-8.285156 0-15 6.714844-15 15v5.90625l-39.378906-19.367188c-2.0625-1.011718-4.324219-1.539062-6.621094-1.539062h-53.785156c-28.085938-28.082031-26.605469-26.964844-29.507813-28.417969l-51.707031-25.851562v-50.730469c0-5.015625-2.503906-9.699219-6.679688-12.480469l-38.320312-25.546875v-21.972656c0-4.589844-2.101562-8.929688-5.703125-11.773438l-76-60c-4.511719-3.558593-10.664063-4.230468-15.835937-1.722656-5.175782 2.503906-8.460938 7.746094-8.460938 13.496094v47.96875c0 10.1875 2.410156 20.386719 6.964844 29.5l23.035156 46.074219v20.246093l-30-30v-23.789062c0-3.976562-1.582031-7.792969-4.394531-10.605469l-20.472657-20.472656c14.265626-21.6875 16.261719-49.675781 4.300782-73.59375l-9.433594-18.867187v-11.460938h11.460938l56.832031 28.417969c2.082031 1.042969 4.378906 1.582031 6.707031 1.582031h31c3.976562 0 7.792969-1.582031 10.605469-4.394531l25.609375-25.605469h8.785156v15c0 3.976562 1.582031 7.792969 4.394531 10.605469l30 30c5.855469 5.859375 15.355469 5.859375 21.214844 0l15.28125-15.285157 20.695313 41.386719c1.449218 2.902344 3.804687 5.257813 6.707031 6.710938l41.386719 20.691406-15.285157 15.285156c-2.8125 2.8125-4.394531 6.628907-4.394531 10.605469v60c0 3.976562 1.582031 7.792969 4.394531 10.605469l30 30c2.8125 2.8125 6.628907 4.394531 10.605469 4.394531h61c8.285156 0 15-6.714844 15-15v-20.730469l42.039062-21.015625 17.960938 17.960938zm0 0"/></svg>