<svg id="Capa_1" enable-background="new 0 0 512 512" height="512" viewBox="0 0 512 512" width="512" xmlns="http://www.w3.org/2000/svg"><path d="m209.563 262.991-41.416-6.239-18.731-37.46c-2.541-5.082-7.734-8.292-13.416-8.292s-10.875 3.21-13.416 8.292l-18.719 37.436-42.385 6.258c-5.666.836-10.361 4.826-12.101 10.282-1.74 5.457-.221 11.427 3.915 15.389l30.668 29.376-6.844 41.185c-.932 5.604 1.384 11.254 5.98 14.594 4.578 3.327 10.666 3.805 15.728 1.178l37.174-19.298 37.174 19.297c5.045 2.619 11.132 2.161 15.729-1.178 4.596-3.34 6.911-8.99 5.979-14.595l-6.866-41.315 29.839-29.39c4.048-3.987 5.496-9.918 3.74-15.322-1.755-5.403-6.413-9.351-12.032-10.198zm-48.147 39.001c-3.479 3.426-5.072 8.33-4.271 13.146l3.225 19.403-17.458-9.063c-4.334-2.249-9.49-2.249-13.822 0l-17.458 9.063 3.225-19.403c.813-4.889-.842-9.863-4.421-13.292l-14.259-13.658 19.802-2.924c4.846-.715 9.036-3.75 11.226-8.131l8.795-17.592 8.797 17.593c2.183 4.366 6.354 7.397 11.182 8.124l19.452 2.93z"/><path d="m449.563 262.991-41.416-6.239-18.731-37.46c-2.541-5.082-7.734-8.292-13.416-8.292s-10.875 3.21-13.416 8.292l-18.731 37.46-41.416 6.239c-5.618.846-10.276 4.794-12.031 10.198-1.756 5.404-.308 11.335 3.74 15.322l29.84 29.39-6.866 41.316c-.932 5.604 1.384 11.254 5.98 14.594 4.578 3.327 10.666 3.805 15.728 1.178l37.172-19.297 37.174 19.297c5.046 2.619 11.133 2.161 15.729-1.178 4.596-3.34 6.911-8.99 5.979-14.595l-6.866-41.315 29.839-29.39c4.048-3.987 5.496-9.918 3.74-15.322-1.755-5.403-6.413-9.351-12.032-10.198zm-48.147 39.001c-3.479 3.426-5.072 8.33-4.271 13.146l3.225 19.403-17.458-9.063c-4.334-2.249-9.49-2.249-13.822 0l-17.458 9.063 3.225-19.403c.801-4.816-.793-9.72-4.271-13.146l-14.015-13.804 19.452-2.93c4.827-.727 8.999-3.758 11.182-8.124l8.795-17.593 8.797 17.593c2.183 4.366 6.354 7.397 11.182 8.124l19.452 2.93z"/><path d="m467 121h-120.465l23.204-22.859c4.048-3.987 5.495-9.919 3.739-15.323-1.757-5.404-6.415-9.351-12.034-10.196l-63.523-9.557-28.614-54.989c-2.583-4.963-7.712-8.076-13.307-8.076s-10.724 3.113-13.307 8.076l-28.614 54.989-63.523 9.557c-5.619.845-10.277 4.792-12.034 10.196-1.756 5.403-.309 11.335 3.739 15.323l23.204 22.859h-120.465c-24.813 0-45 20.187-45 45v240c0 24.813 20.187 45 45 45h165.113l33.108 53.855c2.729 4.44 7.567 7.145 12.778 7.145s10.049-2.705 12.778-7.145l33.11-53.855h165.113c24.813 0 45-20.187 45-45v-240c0-24.813-20.187-45-45-45zm-240.907-29.405c4.744-.714 8.86-3.653 11.075-7.909l18.832-36.191 18.832 36.191c2.215 4.256 6.331 7.195 11.075 7.909l41.405 6.23-29.822 29.379c-3.479 3.426-5.071 8.331-4.271 13.146l6.872 41.324-37.184-19.292c-2.166-1.124-4.537-1.685-6.908-1.685s-4.742.562-6.908 1.685l-37.184 19.292 6.872-41.324c.801-4.816-.792-9.72-4.271-13.146l-29.822-29.379zm255.907 314.405c0 8.271-6.729 15-15 15h-173.5c-5.211 0-10.049 2.705-12.778 7.145l-24.722 40.213-24.722-40.213c-2.729-4.44-7.567-7.145-12.778-7.145h-173.5c-8.271 0-15-6.729-15-15v-240c0-8.271 6.729-15 15-15h141.597l-9.203 55.342c-.932 5.604 1.383 11.254 5.978 14.594 4.596 3.34 10.684 3.798 15.728 1.181l56.9-29.521 56.9 29.521c5.042 2.616 11.131 2.159 15.728-1.181 4.595-3.34 6.909-8.99 5.978-14.594l-9.203-55.342h141.597c8.271 0 15 6.729 15 15z"/></svg>